<svg width="77" height="88" viewBox="0 0 77 88" fill="none" xmlns="http://www.w3.org/2000/svg">
<g clip-path="url(#clip0_140_182)">
<path d="M76.02 3.75C76.02 21.36 76.04 38.97 76.05 56.59C76.05 65.21 76.04 73.83 76.03 82.45C75.66 82.95 75.66 83.45 76.03 83.96C76.12 85.3 75.54 86.6 75.79 87.95H0.290002C-0.229998 77.82 0.110002 67.68 0.0700023 57.54C2.27243e-06 38.89 0.0500023 20.25 0.0400023 1.61C0.0400023 0.536667 0.590002 0 1.69 0C25.67 0 49.66 0 73.64 0C75.0333 0 75.7633 0.666667 75.83 2C75.86 2.59 75.56 3.21 76.02 3.76V3.75ZM15.54 24.62C15.54 24.62 15.51 24.62 15.5 24.62C15.5 28.16 15.54 31.7 15.48 35.23C15.46 36.29 15.79 36.53 16.83 36.52C19.27 36.5 21.72 36.25 24.16 36.7C24.86 36.83 25.33 36.48 25.31 35.65C25.28 34.44 25.36 33.23 25.29 32.03C25.22 30.86 25.74 30.78 26.62 31.15C28.56 31.95 30.58 32.59 32.42 33.58C37.01 36.04 41.8 38.21 45.47 42.08C47.05 43.74 48.23 45.7 48.97 47.81C49.59 49.57 49.64 51.52 49.57 53.44C49.46 56.46 48.38 59.07 46.36 61.24C43.74 64.06 40.38 64.85 36.6 64.82C32.52 64.78 29.42 63.07 26.87 60.08C26.64 59.81 26.22 59.51 26.4 59.15C26.58 58.78 27.07 58.98 27.42 58.98C33.21 58.97 39 58.96 44.79 58.98C45.47 58.98 45.89 58.84 46.27 58.18C47.71 55.65 47.7 52.82 47.2 50.23C46.02 44.08 42.02 40.25 35.97 38.8C33.76 38.27 31.41 38.38 29.08 38.68C25.85 39.1 23.17 40.47 20.79 42.62C18.56 44.63 17.15 47.13 16.16 49.92C14.93 53.35 14.42 56.89 15.68 60.35C17.14 64.38 19.49 67.9 23.01 70.5C26.94 73.4 31.42 74.9 36.24 75.07C39.8 75.2 43.2 74.09 46.53 72.87C49.4 71.81 51.71 69.84 53.82 67.79C56.05 65.63 57.82 63.03 59.04 60.1C60.97 55.44 61.2 50.68 59.6 45.94C57.77 40.53 53.77 36.64 49.7 32.91C48.08 31.42 46.02 30.44 44.28 29.07C42.24 27.47 39.82 26.56 37.57 25.39C36 24.57 34.37 23.76 32.71 23.05C32.36 22.9 31.89 22.69 31.96 22.34C32.07 21.82 32.64 22.03 33.03 22.02C34.07 22 35.11 21.98 36.15 22.02C37.22 22.06 37.58 21.59 37.62 20.53C37.7 18.37 37.22 16.24 37.33 14.08C37.38 13.09 36.99 12.78 36.06 12.78C29.61 12.8 23.15 12.79 16.7 12.78C15.89 12.78 15.53 12.96 15.54 13.9C15.6 17.48 15.56 21.06 15.56 24.64L15.54 24.62Z" fill="#01AFF2"/>
<path d="M76.02 83.95C75.65 83.45 75.65 82.95 76.02 82.44C76.41 82.94 76.41 83.44 76.02 83.95Z" fill="#FDFEFE"/>
<path d="M15.54 24.62C15.54 21.04 15.58 17.46 15.52 13.88C15.5 12.94 15.86 12.76 16.68 12.76C23.13 12.78 29.59 12.78 36.04 12.76C36.97 12.76 37.36 13.07 37.31 14.06C37.2 16.21 37.69 18.34 37.6 20.51C37.56 21.57 37.2 22.04 36.13 22C35.09 21.96 34.05 21.98 33.01 22C32.62 22 32.06 21.8 31.94 22.32C31.87 22.67 32.33 22.88 32.69 23.03C34.34 23.74 35.98 24.55 37.55 25.37C39.79 26.54 42.22 27.45 44.26 29.05C46 30.42 48.07 31.4 49.68 32.89C53.75 36.63 57.75 40.52 59.58 45.92C61.19 50.66 60.96 55.41 59.02 60.08C57.8 63.01 56.03 65.61 53.8 67.77C51.68 69.83 49.38 71.8 46.51 72.85C43.18 74.07 39.78 75.18 36.22 75.05C31.4 74.87 26.93 73.38 22.99 70.48C19.46 67.88 17.12 64.36 15.66 60.33C14.4 56.87 14.92 53.33 16.14 49.9C17.13 47.12 18.55 44.62 20.77 42.6C23.15 40.45 25.82 39.08 29.06 38.66C31.39 38.35 33.74 38.25 35.95 38.78C42 40.23 46 44.06 47.18 50.21C47.68 52.8 47.69 55.62 46.25 58.16C45.87 58.82 45.45 58.97 44.77 58.96C38.98 58.94 33.19 58.95 27.4 58.96C27.05 58.96 26.56 58.76 26.38 59.13C26.21 59.49 26.62 59.79 26.85 60.06C29.4 63.05 32.49 64.77 36.58 64.8C40.36 64.83 43.72 64.04 46.34 61.22C48.36 59.05 49.44 56.44 49.55 53.42C49.62 51.5 49.57 49.56 48.95 47.79C48.21 45.68 47.03 43.72 45.45 42.06C41.78 38.19 36.99 36.01 32.4 33.56C30.56 32.58 28.54 31.93 26.6 31.13C25.72 30.77 25.2 30.85 25.27 32.01C25.34 33.21 25.27 34.42 25.29 35.63C25.31 36.46 24.84 36.81 24.14 36.68C21.7 36.23 19.25 36.48 16.81 36.5C15.77 36.5 15.45 36.27 15.46 35.21C15.52 31.67 15.48 28.13 15.48 24.6C15.49 24.6 15.51 24.6 15.52 24.6L15.54 24.62ZM32.31 50.5C33.47 50.5 34.63 50.5 35.79 50.49C36.02 50.49 36.32 50.62 36.46 50.36C36.63 50.04 36.33 49.79 36.16 49.61C34.14 47.38 30.49 47.22 28.35 49.5C28.14 49.72 27.94 49.93 28.07 50.25C28.22 50.62 28.57 50.48 28.83 50.48C29.99 50.5 31.15 50.48 32.31 50.48V50.5Z" fill="#FDFEFE"/>
<path d="M32.31 50.49C31.15 50.49 29.99 50.5 28.83 50.49C28.57 50.49 28.22 50.62 28.07 50.26C27.94 49.93 28.15 49.73 28.35 49.51C30.49 47.23 34.14 47.39 36.16 49.62C36.32 49.8 36.63 50.05 36.46 50.37C36.32 50.63 36.02 50.5 35.79 50.5C34.63 50.5 33.47 50.5 32.31 50.5V50.49Z" fill="#01AFF2"/>
</g>
<defs>
<clipPath id="clip0_140_182">
<rect width="76.32" height="87.94" fill="white"/>
</clipPath>
</defs>
</svg>
